<svg width="1367" height="2160" viewBox="0 0 1367 2160" fill="none" xmlns="http://www.w3.org/2000/svg">
<rect width="1367" height="669" fill="url(#paint0_linear)"/>
<path d="M-123 290C-123 42.5764 77.5764 -158 325 -158C572.424 -158 773 42.5764 773 290V333C773 580.424 572.424 781 325 781C77.5764 781 -123 580.424 -123 333V290Z" fill="white"/>
<mask id="mask0" style="mask-type:alpha" maskUnits="userSpaceOnUse" x="-123" y="-157" width="896" height="939">
<path d="M-123 291C-123 43.5764 77.5764 -157 325 -157C572.424 -157 773 43.5764 773 291V334C773 581.424 572.424 782 325 782C77.5764 782 -123 581.424 -123 334V291Z" fill="white"/>
</mask>
<g mask="url(#mask0)">
<g filter="url(#filter0_f)">
<ellipse cx="594" cy="566.5" rx="95" ry="95.5" fill="#FDC921"/>
</g>
<g filter="url(#filter1_f)">
<ellipse cx="125" cy="18" rx="208" ry="207" fill="#FFCEE0"/>
</g>
<g filter="url(#filter2_f)">
<circle cx="544" cy="125" r="92" fill="#4E9FD8"/>
</g>
</g>
<rect x="1367" y="2160" width="1367" height="1259" transform="rotate(180 1367 2160)" fill="url(#paint1_linear)" fill-opacity="0.58"/>
<path d="M746 1503C746 1255.58 946.576 1055 1194 1055C1441.42 1055 1642 1255.58 1642 1503V1546C1642 1793.42 1441.42 1994 1194 1994C946.576 1994 746 1793.42 746 1546V1503Z" fill="white"/>
<mask id="mask1" style="mask-type:alpha" maskUnits="userSpaceOnUse" x="746" y="1055" width="896" height="939">
<path d="M746 1503C746 1255.58 946.576 1055 1194 1055C1441.42 1055 1642 1255.58 1642 1503V1546C1642 1793.42 1441.42 1994 1194 1994C946.576 1994 746 1793.42 746 1546V1503Z" fill="white"/>
</mask>
<g mask="url(#mask1)">
<g filter="url(#filter3_f)">
<ellipse cx="1462" cy="1779.5" rx="95" ry="95.5" fill="#FDC921"/>
</g>
<g filter="url(#filter4_f)">
<ellipse cx="993" cy="1231" rx="208" ry="207" fill="#FFCEE0"/>
</g>
<g filter="url(#filter5_f)">
<circle cx="1412" cy="1338" r="92" fill="#4E9FD8"/>
</g>
</g>
<defs>
<filter id="filter0_f" x="199" y="171" width="790" height="791" filterUnits="userSpaceOnUse" color-interpolation-filters="sRGB">
<feFlood flood-opacity="0" result="BackgroundImageFix"/>
<feBlend mode="normal" in="SourceGraphic" in2="BackgroundImageFix" result="shape"/>
<feGaussianBlur stdDeviation="150" result="effect1_foregroundBlur"/>
</filter>
<filter id="filter1_f" x="-383" y="-489" width="1016" height="1014" filterUnits="userSpaceOnUse" color-interpolation-filters="sRGB">
<feFlood flood-opacity="0" result="BackgroundImageFix"/>
<feBlend mode="normal" in="SourceGraphic" in2="BackgroundImageFix" result="shape"/>
<feGaussianBlur stdDeviation="150" result="effect1_foregroundBlur"/>
</filter>
<filter id="filter2_f" x="152" y="-267" width="784" height="784" filterUnits="userSpaceOnUse" color-interpolation-filters="sRGB">
<feFlood flood-opacity="0" result="BackgroundImageFix"/>
<feBlend mode="normal" in="SourceGraphic" in2="BackgroundImageFix" result="shape"/>
<feGaussianBlur stdDeviation="150" result="effect1_foregroundBlur"/>
</filter>
<filter id="filter3_f" x="1067" y="1384" width="790" height="791" filterUnits="userSpaceOnUse" color-interpolation-filters="sRGB">
<feFlood flood-opacity="0" result="BackgroundImageFix"/>
<feBlend mode="normal" in="SourceGraphic" in2="BackgroundImageFix" result="shape"/>
<feGaussianBlur stdDeviation="150" result="effect1_foregroundBlur"/>
</filter>
<filter id="filter4_f" x="485" y="724" width="1016" height="1014" filterUnits="userSpaceOnUse" color-interpolation-filters="sRGB">
<feFlood flood-opacity="0" result="BackgroundImageFix"/>
<feBlend mode="normal" in="SourceGraphic" in2="BackgroundImageFix" result="shape"/>
<feGaussianBlur stdDeviation="150" result="effect1_foregroundBlur"/>
</filter>
<filter id="filter5_f" x="1020" y="946" width="784" height="784" filterUnits="userSpaceOnUse" color-interpolation-filters="sRGB">
<feFlood flood-opacity="0" result="BackgroundImageFix"/>
<feBlend mode="normal" in="SourceGraphic" in2="BackgroundImageFix" result="shape"/>
<feGaussianBlur stdDeviation="150" result="effect1_foregroundBlur"/>
</filter>
<linearGradient id="paint0_linear" x1="683.5" y1="0" x2="683.5" y2="669" gradientUnits="userSpaceOnUse">
<stop stop-color="#C0E8FF"/>
<stop offset="1" stop-color="white" stop-opacity="0"/>
</linearGradient>
<linearGradient id="paint1_linear" x1="2050.5" y1="2160" x2="2050.5" y2="3419" gradientUnits="userSpaceOnUse">
<stop offset="0.015625" stop-color="white" stop-opacity="0"/>
<stop offset="0.515625" stop-color="#98A2FF" stop-opacity="0.25"/>
<stop offset="1" stop-color="white" stop-opacity="0.28"/>
</linearGradient>
</defs>
</svg>
